IKResults
version=1
nRows=11
nColumns=40
inDegrees=yes

Units are S.I. units (second, meters, Newtons, ...)
Angles are in degrees.

endheader
time	pelvis_tilt	pelvis_list	pelvis_rotation	pelvis_tx	pelvis_ty	pelvis_tz	hip_flexion_r	hip_adduction_r	hip_rotation_r	knee_angle_r	knee_angle_r_beta	ankle_angle_r	subtalar_angle_r	mtp_angle_r	hip_flexion_l	hip_adduction_l	hip_rotation_l	knee_angle_l	knee_angle_l_beta	ankle_angle_l	subtalar_angle_l	mtp_angle_l	lumbar_extension	lumbar_bending	lumbar_rotation	arm_flex_r	arm_add_r	arm_rot_r	elbow_flex_r	pro_sup_r	wrist_flex_r	wrist_dev_r	arm_flex_l	arm_add_l	arm_rot_l	elbow_flex_l	pro_sup_l	wrist_flex_l	wrist_dev_l
      2.38000000	     17.18509111	     -4.13731248	      2.39799483	      0.18317879	      0.95097268	     -1.48590450	      2.84361640	      1.61068751	    -22.91442122	    -16.21439893	     -0.28299465	      0.88958417	      7.97520393	     -7.99469019	    -23.55380487	      1.60648125	     14.22379227	    -13.68906793	     -0.23891931	     13.19983994	     -1.26721731	     -5.99401928	    -23.98634469	      4.10952520	     -2.21195056	     -2.24118894	     -9.86506105	      0.73540360	     24.94040203	     89.95437384	      0.00000000	      0.00000000	     17.44535858	     13.76779941	     -2.71404426	     40.32994200	     89.95437384	      0.00000000	      0.00000000
      2.39000000	     17.25533965	     -4.40409244	      2.73670798	      0.18872221	      0.95061807	     -1.48574468	      2.79275293	      2.08961143	    -23.69555364	    -15.05721750	     -0.26279802	      1.23550879	      8.98972468	     -8.24997946	    -23.86289080	      2.07092515	     14.01806174	    -13.93408250	     -0.24319562	     13.39540299	     -1.12256417	     -6.05019982	    -24.08796673	      4.51650172	     -2.45433984	     -2.19735754	     -9.75648305	      0.40787632	     24.81127664	     89.95437384	      0.00000000	      0.00000000	     17.23210131	     13.71356315	     -2.66461896	     41.40808714	     89.95437384	      0.00000000	      0.00000000
      2.40000000	     17.09505780	     -4.32397253	      2.67700829	      0.19414368	      0.94993676	     -1.48548084	      3.28177408	      2.05341945	    -24.25865809	    -14.61851456	     -0.25514121	      1.49451998	      8.90711779	     -8.23365042	    -24.00477112	      1.98098659	     14.03997277	    -14.03632773	     -0.24498013	     13.47023751	     -1.11917205	     -6.02844670	    -23.95160672	      4.45655096	     -2.33848660	     -2.27847400	     -9.76892377	      0.36860644	     24.76058598	     89.95437384	      0.00000000	      0.00000000	     17.32204011	     13.43963208	     -2.68132477	     41.84206796	     89.95437384	      0.00000000	      0.00000000
      2.41000000	     17.31341376	     -4.58613209	      3.26175767	      0.19991538	      0.94976501	     -1.48554578	      2.96078210	      2.51082685	    -25.40613360	    -13.55939584	     -0.23665610	      1.88159329	      9.60586039	     -8.55076379	    -24.48942725	      2.54155934	     13.54241390	    -14.22107298	     -0.24820455	     13.69372726	     -1.10425702	     -6.14105419	    -24.18750986	      4.94318700	     -2.72335133	     -2.30777489	     -9.65335016	      0.01520619	     24.70496865	     89.95437384	      0.00000000	      0.00000000	     17.12553611	     13.32455933	     -2.66710801	     42.76757195	     89.95437384	      0.00000000	      0.00000000
      2.42000000	     17.15428205	     -4.48530940	      3.23958975	      0.20549915	      0.94901658	     -1.48529964	      3.37146939	      2.44924714	    -25.83830535	    -13.23522595	     -0.23099827	      2.15295275	      9.44347554	     -8.54121410	    -24.65687807	      2.44282954	     13.62812151	    -14.27863216	     -0.24920914	     13.76243441	     -1.07853910	     -6.11622439	    -24.02737882	      4.88592225	     -2.67153426	     -2.40781822	     -9.66542393	     -0.00033152	     24.64213879	     89.95437384	      0.00000000	      0.00000000	     17.15311384	     13.05513567	     -2.72581325	     43.10572189	     89.95437384	      0.00000000	      0.00000000
      2.43000000	     17.35511864	     -4.62161027	      3.68677280	      0.21145907	      0.94876856	     -1.48528895	      3.07741053	      2.77072022	    -26.52799660	    -12.49139090	     -0.21801590	      2.70634384	      9.70770761	     -8.79461138	    -25.20564484	      2.81145106	     13.21501469	    -14.34316920	     -0.25033553	     13.86468764	     -1.09016994	     -6.19314896	    -24.22869601	      5.21056071	     -2.99510461	     -2.39953053	     -9.58811275	     -0.17369712	     24.48448762	     89.95437384	      0.00000000	      0.00000000	     16.94640628	     12.91950886	     -2.75508634	     43.83831045	     89.95437384	      0.00000000	      0.00000000
      2.44000000	     17.21240943	     -4.49921487	      3.75299978	      0.21715675	      0.94807298	     -1.48512401	      3.38794703	      2.68195113	    -26.74925143	    -12.30296010	     -0.21472716	      2.86551806	      9.48937351	     -8.76656561	    -25.35563120	      2.75641804	     13.22113600	    -14.48132197	     -0.25274675	     13.88304618	     -1.05679574	     -6.15879699	    -24.10652218	      5.15193034	     -2.99110709	     -2.48743530	     -9.60646440	     -0.17772550	     24.45540941	     89.95437384	      0.00000000	      0.00000000	     16.92368876	     12.61755344	     -2.83296579	     44.15040466	     89.95437384	      0.00000000	      0.00000000
      2.45000000	     17.06198658	     -4.36789510	      3.84755345	      0.22296966	      0.94731756	     -1.48509945	      3.69599795	      2.57829529	    -26.78851483	    -12.26974366	     -0.21414743	      3.02776909	      9.24830840	     -8.70464398	    -25.49067981	      2.69959167	     13.18353442	    -14.68248519	     -0.25625771	     13.83611643	     -1.03593982	     -6.10536520	    -23.96486394	      5.11828811	     -2.99661754	     -2.62703535	     -9.65763870	     -0.15753455	     24.42876305	     89.95437384	      0.00000000	      0.00000000	     16.85538363	     12.29110108	     -2.90720469	     44.46066440	     89.95437384	      0.00000000	      0.00000000
      2.46000000	     17.48186245	     -4.44369135	      4.42732047	      0.22929309	      0.94739973	     -1.48519901	      2.93029022	      2.91192690	    -27.06078877	    -11.51697015	     -0.20100905	      3.50208229	      9.27866188	     -8.97891833	    -26.35379215	      3.08704663	     12.68278267	    -14.59716484	     -0.25476859	     13.82832643	     -1.10631208	     -6.19595796	    -24.35960072	      5.44616587	     -3.50391711	     -2.57399055	     -9.59587771	     -0.13535298	     24.26553737	     89.95437384	      0.00000000	      0.00000000	     16.55872289	     12.23548552	     -3.04225918	     45.06275719	     89.95437384	      0.00000000	      0.00000000
      2.47000000	     17.56019545	     -4.35972114	      4.70182189	      0.23550001	      0.94704702	     -1.48515053	      2.68565410	      2.98813752	    -26.79960316	    -11.19417453	     -0.19537520	      3.54900375	      9.02859229	     -9.15806320	    -26.80961235	      3.18484606	     12.44026369	    -14.63958229	     -0.25550891	     13.68600451	     -1.09901543	     -6.23042363	    -24.40719131	      5.51738412	     -3.68532750	     -2.67719711	     -9.62805611	      0.00549879	     24.22868938	     89.95437384	      0.00000000	      0.00000000	     16.42580623	     11.98475010	     -3.20587436	     45.23808261	     89.95437384	      0.00000000	      0.00000000
      2.48000000	     17.33330407	     -4.18632408	      4.81329108	      0.24151916	      0.94620272	     -1.48506856	      2.99948684	      2.81299834	    -26.44940704	    -11.43997543	     -0.19966524	      3.52565402	      8.78249817	     -9.04388955	    -26.80458215	      3.13260500	     12.37517838	    -14.96504887	     -0.26118938	     13.56373703	     -1.07044202	     -6.14823604	    -24.18053157	      5.45072877	     -3.75638897	     -2.82825768	     -9.68540590	      0.02248920	     24.28630583	     89.95437384	      0.00000000	      0.00000000	     16.27504358	     11.66204730	     -3.29850808	     45.37016365	     89.95437384	      0.00000000	      0.00000000
